HIERARCHY
ROOT Hips
{
	OFFSET 0.000000 0.000000 0.000000
	CHANNELS 6 Xposition Yposition Zposition Xrotation Yrotation Zrotation
	JOINT LeftUpLeg_virtual
	{
		OFFSET 0.000000 0.000000 0.000000
		CHANNELS 3 Xrotation Yrotation Zrotation
		JOINT LeftUpLeg
		{
			OFFSET 11.394100 -6.187798 -0.413800
			CHANNELS 3 Xrotation Yrotation Zrotation
			JOINT LeftLeg
			{
				OFFSET 0.430247 -32.302673 3.732800
				CHANNELS 3 Xrotation Yrotation Zrotation
				JOINT LeftFoot
				{
					OFFSET -0.430247 -48.264931 -6.423300
					CHANNELS 3 Xrotation Yrotation Zrotation
					JOINT LeftToeBase
					{
						OFFSET 4.230900 -16.068199 23.438400
						CHANNELS 3 Xrotation Yrotation Zrotation
						JOINT LeftToe_End
						{
							OFFSET 4.510700 0.695400 19.974600
							CHANNELS 3 Xrotation Yrotation Zrotation
							End Site
							{
								OFFSET 0 0 0
							}
						}
					}
				}
			}
		}
	}
	JOINT RightUpLeg_virtual
	{
		OFFSET 0.000000 0.000000 0.000000
		CHANNELS 3 Xrotation Yrotation Zrotation
		JOINT RightUpLeg
		{
			OFFSET -11.333700 -6.187798 -0.413800
			CHANNELS 3 Xrotation Yrotation Zrotation
			JOINT RightLeg
			{
				OFFSET -0.430392 -32.302628 3.733000
				CHANNELS 3 Xrotation Yrotation Zrotation
				JOINT RightFoot
				{
					OFFSET 0.430392 -48.264973 -6.423500
					CHANNELS 3 Xrotation Yrotation Zrotation
					JOINT RightToeBase
					{
						OFFSET -4.230900 -16.068199 23.438400
						CHANNELS 3 Xrotation Yrotation Zrotation
						JOINT RightToe_End
						{
							OFFSET -4.510700 0.695400 19.974600
							CHANNELS 3 Xrotation Yrotation Zrotation
							End Site
							{
								OFFSET 0 0 0
							}
						}
					}
				}
			}
		}
	}
	JOINT Spine_virtual
	{
		OFFSET 0.000000 0.000000 0.000000
		CHANNELS 3 Xrotation Yrotation Zrotation
		JOINT Spine
		{
			OFFSET -0.002400 12.777504 0.315300
			CHANNELS 3 Xrotation Yrotation Zrotation
			JOINT Spine1
			{
				OFFSET -0.002067 5.816869 0.032633
				CHANNELS 3 Xrotation Yrotation Zrotation
				JOINT Spine1_split
				{
					OFFSET -0.002067 5.816869 0.032633
					CHANNELS 3 Xrotation Yrotation Zrotation
					JOINT Spine2
					{
						OFFSET -0.002067 5.816869 0.032633
						CHANNELS 3 Xrotation Yrotation Zrotation
						JOINT Neck_virtual
						{
							OFFSET 0.000000 0.000000 0.000000
							CHANNELS 3 Xrotation Yrotation Zrotation
							JOINT Neck
							{
								OFFSET -0.003700 21.199493 -0.826900
								CHANNELS 3 Xrotation Yrotation Zrotation
								JOINT Head
								{
									OFFSET 0.000000 20.442200 4.834800
									CHANNELS 3 Xrotation Yrotation Zrotation
									JOINT HeadTop_End
									{
										OFFSET 0.000000 34.668396 4.968400
										CHANNELS 3 Xrotation Yrotation Zrotation
										End Site
										{
											OFFSET 0 0 0
										}
									}
								}
							}
						}
						JOINT LeftShoulder_virtual
						{
							OFFSET 0.000000 0.000000 0.000000
							CHANNELS 3 Xrotation Yrotation Zrotation
							JOINT LeftShoulder
							{
								OFFSET 3.288150 8.794197 -1.372250
								CHANNELS 3 Xrotation Yrotation Zrotation
								JOINT LeftShoulder_split
								{
									OFFSET 3.288150 8.794197 -1.372250
									CHANNELS 3 Xrotation Yrotation Zrotation
									JOINT LeftArm
									{
										OFFSET 11.953299 -2.279007 -0.146200
										CHANNELS 3 Xrotation Yrotation Zrotation
										JOINT LeftForeArm
										{
											OFFSET 18.448900 0.000000 0.000000
											CHANNELS 3 Xrotation Yrotation Zrotation
											JOINT LeftHand
											{
												OFFSET 29.527798 0.000000 0.000000
												CHANNELS 3 Xrotation Yrotation Zrotation
												End Site
												{
													OFFSET 0 0 0
												}
											}
										}
									}
								}
							}
						}
						JOINT RightShoulder_virtual
						{
							OFFSET 0.000000 0.000000 0.000000
							CHANNELS 3 Xrotation Yrotation Zrotation
							JOINT RightShoulder
							{
								OFFSET -3.249400 8.794197 -1.372250
								CHANNELS 3 Xrotation Yrotation Zrotation
								JOINT RightShoulder_split
								{
									OFFSET -3.249400 8.794197 -1.372250
									CHANNELS 3 Xrotation Yrotation Zrotation
									JOINT RightArm
									{
										OFFSET -11.953299 -2.279007 -0.146200
										CHANNELS 3 Xrotation Yrotation Zrotation
										JOINT RightForeArm
										{
											OFFSET -18.448900 0.000000 0.000000
											CHANNELS 3 Xrotation Yrotation Zrotation
											JOINT RightHand
											{
												OFFSET -29.527802 0.000000 0.000000
												CHANNELS 3 Xrotation Yrotation Zrotation
												End Site
												{
													OFFSET 0 0 0
												}
											}
										}
									}
								}
							}
						}
					}
				}
			}
		}
	}
}
MOTION
Frames: 9
Frame Time: 0.03333333
1.703331 81.521294 2.243973 0.000000 0.000000 0.000000 26.309110 -57.703617 26.441631 -63.233632 21.217918 32.451305 48.205180 -17.845005 -0.117212 -1.895765 3.236601 -10.614353 -4.603765 -6.694761 1.812417 0.000000 0.000000 0.000000 21.021784 -53.003419 22.983670 -43.447650 6.990203 -29.062185 55.587016 1.031625 -5.147141 -28.108419 5.294422 24.301255 -4.593422 3.234719 -1.482644 0.000000 0.000000 0.000000 10.172717 -41.495575 15.304127 4.167622 10.595067 0.670419 6.423577 9.070583 -4.418390 1.948449 -2.859711 2.382599 0.000000 0.000000 0.000000 -9.890369 8.882925 -2.868669 -21.424994 -9.625783 2.762604 3.989204 6.976972 -7.943150 0.000000 0.000000 0.000000 -7.703905 8.169804 -0.741730 1.966390 -24.937968 3.930251 -2.073267 1.724988 -3.932798 3.930801 20.234104 -60.365806 -35.247861 -59.677234 -34.233062 0.000000 0.000000 0.000000 -9.497469 8.598231 -1.971805 -0.875092 6.509941 2.826150 8.462882 4.414126 11.360194 14.096416 -9.563315 43.703314 -40.119278 54.342235 37.607267 0.000000 0.000000 0.000000 
0.567499 81.257057 1.879879 0.000000 0.000000 0.000000 28.630123 -57.756797 28.072627 -63.300137 21.411641 32.222708 48.139269 -19.014652 0.643908 -2.260722 2.458289 -11.205667 -4.693616 -6.897174 2.772343 0.000000 0.000000 0.000000 23.235948 -52.356289 24.304187 -44.582492 7.385948 -28.325319 57.612127 1.636996 -5.740283 -27.634672 4.610338 26.332497 -6.053016 3.034224 -1.490845 0.000000 0.000000 0.000000 12.658403 -42.317021 17.469150 4.672219 9.032546 0.948119 7.123628 7.570190 -4.048266 4.090211 -5.164336 3.865140 0.000000 0.000000 0.000000 -9.079915 7.719940 -2.466479 -21.258448 -8.328098 3.599779 3.359454 7.173920 -6.042191 0.000000 0.000000 0.000000 -7.335640 6.814726 -0.762118 1.750898 -24.283590 3.309849 -0.939193 -3.311156 -2.748068 8.115631 23.371410 -58.647617 -29.690713 -54.873665 -28.632781 0.000000 0.000000 0.000000 -9.616753 7.332508 -1.684880 -0.653241 6.649730 4.078723 6.731431 2.466388 10.900042 12.680440 -12.638078 44.844092 -48.346927 59.539182 45.293054 0.000000 0.000000 0.000000 
-1.575251 81.054626 1.753456 0.000000 0.000000 0.000000 31.763211 -56.787473 30.682279 -63.583843 21.267298 31.628690 47.310077 -19.791440 1.219681 -2.966513 2.459023 -12.062906 -5.261632 -7.063894 3.670130 0.000000 0.000000 0.000000 26.796828 -51.286709 27.087758 -46.043169 7.996250 -27.496409 59.284293 1.635935 -6.435055 -28.883924 2.732997 27.059210 -4.180746 2.873720 -0.751677 0.000000 0.000000 0.000000 17.443022 -42.644785 21.352375 5.646959 6.173976 1.520138 8.349911 4.165099 -3.663002 4.006475 -4.586156 4.307579 0.000000 0.000000 0.000000 -7.767766 4.642983 -2.293410 -20.188596 -6.897594 5.401540 1.088961 7.168742 -2.459960 0.000000 0.000000 0.000000 -6.175068 3.640595 -1.222184 1.967734 -22.650572 3.337225 0.861313 -8.944220 -0.517287 10.738089 27.576428 -56.033106 -21.613761 -48.567505 -20.776606 0.000000 0.000000 0.000000 -8.849750 4.051666 -1.946078 -0.705599 6.168842 6.109052 6.984014 2.368145 11.213333 8.550200 -15.294839 43.726888 -72.344694 65.853624 69.345135 0.000000 0.000000 0.000000 
-4.244339 80.991859 1.876461 0.000000 0.000000 0.000000 35.090244 -54.852576 33.683781 -63.677785 20.978506 30.650119 45.743577 -19.864417 1.463239 -3.704246 3.261213 -12.698300 -6.300440 -7.146687 4.141842 0.000000 0.000000 0.000000 30.661798 -49.667008 30.566889 -47.842122 8.646757 -26.780057 60.334538 1.223118 -7.207145 -31.063041 0.111751 27.093463 -0.063140 2.932428 0.369985 0.000000 0.000000 0.000000 23.677044 -41.998902 26.046940 7.208831 2.551816 2.161711 10.129631 -0.314450 -3.267232 1.976044 -2.555790 3.793408 0.000000 0.000000 0.000000 -5.939086 0.345702 -2.369253 -18.482325 -5.282427 7.133620 -2.459044 6.369340 2.023799 0.000000 0.000000 0.000000 -4.103982 -0.674606 -1.897450 2.652844 -20.735022 4.002254 2.027033 -12.958307 1.128331 9.734329 31.840074 -51.436201 -13.875093 -41.233610 -13.323873 0.000000 0.000000 0.000000 -6.988351 -0.396086 -2.461796 -0.843367 5.597108 8.946401 8.503874 3.424202 11.534491 3.069617 -16.363402 40.027938 -99.735303 66.233840 97.334307 0.000000 0.000000 0.000000 
-7.021594 81.143745 2.263039 0.000000 0.000000 0.000000 37.999788 -52.137593 36.419658 -63.479293 20.746935 29.492463 43.790026 -19.445682 1.487537 -4.319783 4.565738 -13.073002 -7.142194 -7.129430 3.973348 0.000000 0.000000 0.000000 34.281430 -47.339590 34.051891 -49.515504 9.149678 -26.379970 60.422019 0.944083 -8.178624 -33.514051 -2.564694 27.500367 2.998187 3.211455 1.431087 0.000000 0.000000 0.000000 29.798818 -40.665334 30.514977 9.309420 -1.155502 2.720181 12.669943 -4.784180 -2.830217 0.481315 -0.930126 2.297953 0.000000 0.000000 0.000000 -3.530841 -4.152262 -2.595674 -16.307664 -3.610047 7.914499 -6.310315 4.684455 6.227364 0.000000 0.000000 0.000000 -1.108300 -5.086111 -2.529355 3.653577 -19.421448 4.990975 3.206848 -14.679285 2.600771 3.923653 34.536828 -44.435954 -7.391605 -33.230001 -7.272345 0.000000 0.000000 0.000000 -3.886606 -4.862956 -2.926668 -0.960091 5.355885 12.494767 10.294263 4.800678 11.372729 -2.524457 -15.397461 34.820919 -110.440033 64.660711 109.002108 0.000000 0.000000 0.000000 
-9.415261 81.365791 2.713501 0.000000 0.000000 0.000000 40.132002 -49.133615 38.525429 -62.804703 20.770919 28.296794 42.109236 -18.932239 1.549921 -5.096477 5.900811 -13.254913 -7.197244 -7.052795 3.405112 0.000000 0.000000 0.000000 37.042882 -44.870013 37.025281 -50.410116 9.179123 -26.456693 59.485279 0.907356 -9.296769 -35.989547 -4.789645 28.330235 3.787551 3.578288 2.274563 0.000000 0.000000 0.000000 34.495676 -38.703936 33.785954 11.415558 -4.248859 2.988885 16.111771 -8.289536 -2.356553 -0.606523 0.592969 0.475904 0.000000 0.000000 0.000000 -0.316990 -7.822568 -2.775578 -14.184456 -2.046962 7.022848 -9.517226 2.169107 9.251205 0.000000 0.000000 0.000000 2.838150 -8.595471 -2.932867 4.790446 -19.123840 5.925399 3.152879 -14.782614 2.109721 -6.471947 33.107891 -35.614269 -2.660833 -25.237160 -2.973017 0.000000 0.000000 0.000000 0.340602 -8.321418 -3.118370 -1.073112 6.164508 16.487423 10.957475 4.567482 11.748703 -6.876760 -12.536431 29.330011 -105.035154 65.576626 104.593576 0.000000 0.000000 0.000000 
-11.218069 81.622971 3.217430 0.000000 0.000000 0.000000 40.899572 -46.111778 39.576797 -61.554648 21.266395 27.171389 40.917495 -18.863980 1.779036 -6.324753 6.885086 -13.624820 -6.424786 -6.969994 2.664489 0.000000 0.000000 0.000000 38.415624 -42.953175 39.089022 -50.213874 8.451662 -26.836655 57.918201 0.685510 -10.213246 -38.465419 -6.545250 28.486465 3.727305 3.896845 3.136098 0.000000 0.000000 0.000000 37.110358 -36.626609 35.718013 13.099679 -6.443924 2.884108 20.176544 -10.341519 -1.942424 -0.927931 0.890225 -0.952024 0.000000 0.000000 0.000000 3.683874 -10.053329 -2.800933 -12.220883 -0.643483 4.448911 -11.221787 -0.335877 10.654775 0.000000 0.000000 0.000000 7.291728 -10.646037 -3.149541 5.735072 -19.859523 6.143076 2.715705 -13.761826 1.482340 -18.620289 25.336617 -28.212055 0.530246 -18.379197 -0.162835 0.000000 0.000000 0.000000 5.354975 -10.157506 -3.056661 -1.039016 7.805731 20.095917 10.778458 3.294449 11.863706 -9.614599 -8.971845 24.581195 -86.886461 67.210106 87.062727 0.000000 0.000000 0.000000 
-12.260586 81.928581 3.730377 0.000000 0.000000 0.000000 40.189591 -43.566512 39.508177 -59.939247 22.286223 26.440513 40.368665 -19.722540 2.256633 -7.483925 7.286553 -14.918233 -5.639760 -6.891678 1.978477 0.000000 0.000000 0.000000 38.254872 -41.924101 39.968122 -49.144314 6.871778 -27.549869 56.506223 0.097443 -10.613329 -40.914390 -7.723589 27.285054 4.097146 4.078446 4.236085 0.000000 0.000000 0.000000 37.684940 -35.329229 36.639467 14.041295 -7.569443 2.580666 24.356803 -10.759892 -1.707386 -0.114962 0.177108 -1.247237 0.000000 0.000000 0.000000 8.102806 -10.595774 -2.668047 -10.727041 0.490858 0.648464 -10.977361 -1.711967 10.587382 0.000000 0.000000 0.000000 11.607089 -11.016592 -3.249806 6.193824 -21.289696 5.681538 2.319417 -12.631187 1.139914 -29.658693 11.894356 -25.495872 2.266914 -13.843579 1.452595 0.000000 0.000000 0.000000 10.427186 -10.303928 -2.917664 -0.867471 9.738079 22.549028 10.046795 1.746557 10.822694 -11.538659 -6.478313 21.137528 -65.806434 66.651458 66.226983 0.000000 0.000000 0.000000 
-12.701650 82.241791 4.311062 0.000000 0.000000 0.000000 38.399972 -42.017336 38.544318 -58.314632 23.666452 26.385840 40.397239 -21.192366 2.828021 -7.771404 7.060828 -17.032098 -5.428113 -6.795990 1.542132 0.000000 0.000000 0.000000 36.907965 -41.771210 39.775883 -47.478677 4.712085 -28.535390 55.722667 -0.755125 -10.380148 -42.864628 -8.201695 25.164128 4.768682 4.129892 5.444895 0.000000 0.000000 0.000000 36.703903 -35.140135 36.724889 14.111263 -7.762484 2.193714 28.008905 -9.889894 -1.696335 0.076911 -0.868103 -0.233857 0.000000 0.000000 0.000000 12.355953 -9.783089 -2.467006 -9.665676 1.387690 -3.128265 -8.608037 -2.032251 9.314734 0.000000 0.000000 0.000000 15.338242 -10.098982 -3.251378 6.099816 -22.835197 4.688960 2.689248 -12.023740 0.955680 -39.016465 -3.125226 -27.510298 2.856515 -11.713320 2.248326 0.000000 0.000000 0.000000 14.786776 -9.257071 -2.747523 -0.496641 11.607918 23.185304 9.124070 -0.153419 9.500396 -13.260233 -5.555865 19.083106 -53.792487 65.626110 54.065097 0.000000 0.000000 0.000000 
